Coordinates
version=1
nRows=7
nColumns=40
inDegrees=yes

Units are S.I. units (second, meters, Newtons, ...)
Angles are in degrees.

endheader
time	pelvis_tilt	pelvis_list	pelvis_rotation	pelvis_tx	pelvis_ty	pelvis_tz	hip_flexion_r	hip_adduction_r	hip_rotation_r	knee_angle_r	knee_angle_r_beta	ankle_angle_r	subtalar_angle_r	mtp_angle_r	hip_flexion_l	hip_adduction_l	hip_rotation_l	knee_angle_l	knee_angle_l_beta	ankle_angle_l	subtalar_angle_l	mtp_angle_l	lumbar_extension	lumbar_bending	lumbar_rotation	arm_flex_r	arm_add_r	arm_rot_r	elbow_flex_r	pro_sup_r	wrist_flex_r	wrist_dev_r	arm_flex_l	arm_add_l	arm_rot_l	elbow_flex_l	pro_sup_l	wrist_flex_l	wrist_dev_l
      3.47500000	     -4.93276300	     -2.53972390	    -13.56242224	      1.01760271	      0.92535410	      0.39405970	     23.56545594	     -2.10583405	     -4.40395031	     16.31866340	     16.31866340	      2.65020736	      9.60709272	      1.21072184	      9.16209267	     -2.14881461	    -13.52969912	     21.29634288	     21.29634288	     18.65823545	    -16.56054959	      3.62318607	     -9.66200463	      7.48795391	      1.47472863	    -22.10175566	    -10.19974411	     -7.56629441	     32.96037122	     46.11058129	      0.00000000	      0.00000000	     46.60604401	    -24.89130003	     -2.91133777	     62.72917172	     47.05906245	      0.00000000	      0.00000000
      3.49821429	     -5.11467752	     -2.42214802	    -14.01956360	      1.01854562	      0.92485122	      0.39817777	     23.45105472	     -1.86082633	     -4.10053721	     16.44625655	     16.44625655	      3.02544147	      9.69476963	      0.91645564	      8.69733798	     -2.22147686	    -13.88158505	     20.95709599	     20.95709599	     18.84720738	    -16.58889161	      3.64078301	     -9.38981566	      7.54762696	      1.53744674	    -22.04150932	     -9.88914538	     -7.46849839	     32.99622096	     46.10201992	      0.00000000	      0.00000000	     47.48246874	    -25.35078935	     -3.16327539	     63.08335269	     47.09196110	      0.00000000	      0.00000000
      3.52142857	     -5.03019814	     -2.25178116	    -14.45411001	      1.01991112	      0.92469774	      0.40251276	     23.18187782	     -1.72325393	     -3.57750209	     16.94785546	     16.94785546	      3.56670652	      9.47245713	      0.24564717	      7.77305304	     -2.14436376	    -14.36011979	     20.31015844	     20.31015844	     19.03654929	    -16.36754723	      3.65308095	     -9.36861370	      7.42654397	      1.63860687	    -21.84264430	     -9.66535449	     -7.33139166	     33.07063138	     46.09003753	      0.00000000	      0.00000000	     48.20152155	    -25.61461219	     -3.54986512	     63.66526179	     47.13839067	      0.00000000	      0.00000000
      3.54464286	     -5.00517356	     -2.13033482	    -14.81691665	      1.02146960	      0.92455486	      0.40706571	     22.95886724	     -1.50346563	     -2.93814780	     17.51579989	     17.51579989	      4.10534464	      9.00159892	     -0.58699530	      6.89467758	     -2.12880539	    -14.74363810	     19.66300367	     19.66300367	     19.14870253	    -16.15627569	      3.64756735	     -9.28713353	      7.39892571	      1.70392723	    -21.61786797	     -9.55617391	     -7.19534239	     33.14784095	     46.07823752	      0.00000000	      0.00000000	     48.57911948	    -25.77994985	     -4.04539959	     64.31546596	     47.19158062	      0.00000000	      0.00000000
      3.56785714	     -5.03775714	     -2.07827592	    -15.11763923	      1.02313377	      0.92439539	      0.41187942	     22.60005429	     -1.12402092	     -2.09975347	     17.70168453	     17.70168453	      3.69050919	      7.81718014	     -3.75951211	      6.06626656	     -2.22136056	    -15.11254122	     19.01414574	     19.01414574	     18.97531532	    -16.03119068	      3.00267169	     -9.17881883	      7.42523864	      1.03619301	    -20.90984834	     -9.82582922	     -6.07766629	     33.11604916	     46.00307828	      0.00000000	      0.00000000	     47.77549098	    -26.31149290	     -6.37848240	     66.59098707	     47.42208989	      0.00000000	      0.00000000
      3.59107143	     -5.03093595	     -2.06065830	    -15.33407514	      1.02480981	      0.92436497	      0.41677016	     22.39854667	     -0.80996376	     -1.57358398	     18.36902183	     18.36902183	      4.37483741	      7.22641843	     -4.08626846	      5.22807244	     -2.33686777	    -15.37377053	     18.44861243	     18.44861243	     19.05534882	    -15.84283030	      3.11101006	     -9.10866313	      7.43770353	      1.06979220	    -20.62634376	     -9.85805220	     -5.98035747	     33.19813253	     45.99480407	      0.00000000	      0.00000000	     48.08757008	    -26.45981238	     -6.51869930	     66.81771783	     47.44175205	      0.00000000	      0.00000000
      3.61428571	     -5.04069768	     -2.12452697	    -15.46478153	      1.02648940	      0.92441595	      0.42180361	     22.17608555	     -0.41039871	     -1.09646654	     18.99572653	     18.99572653	      5.00961593	      6.53478023	     -4.30847931	      4.41539506	     -2.56237419	    -15.58480882	     17.92769303	     17.92769303	     19.09270531	    -15.60809077	      3.21003202	     -9.05874405	      7.51067057	      1.03768293	    -20.34183307	     -9.97122947	     -5.93602826	     33.28999202	     45.98987256	      0.00000000	      0.00000000	     48.26107111	    -26.57269759	     -6.69970493	     67.04969184	     47.46265014	      0.00000000	      0.00000000
